<svg width="543" height="154" viewBox="0 0 543 154" fill="none" xmlns="http://www.w3.org/2000/svg">
<path d="M8.5 91.3125C9.95833 91.3125 10.875 91.875 11.25 93C11.625 94.125 11.8125 95.9792 11.8125 98.5625C11.8125 101.146 12.1667 103.562 12.875 105.812C13.5833 108.062 14.5625 109.958 15.8125 111.5C18.3542 114.583 21.875 116.125 26.375 116.125C30.875 116.125 34.4583 114.479 37.125 111.188C39.7917 107.854 41.125 103.083 41.125 96.875C41.125 88.5833 37.6042 81.2083 30.5625 74.75C28.5625 72.9167 26.5 71.1042 24.375 69.3125C22.2917 67.5208 20.25 65.6667 18.25 63.75C16.25 61.8333 14.4583 59.7083 12.875 57.375C9.41667 52.25 7.6875 46.4167 7.6875 39.875C7.6875 33.1667 9.66667 27.75 13.625 23.625C17.5417 19.5417 22.4583 17.5 28.375 17.5C33.4583 17.5 37.625 19.2083 40.875 22.625C44.5 26.5417 46.1667 31.9583 45.875 38.875C45.8333 39.2083 45.8125 39.5625 45.8125 39.9375C45.8542 40.3125 45.8125 41.0208 45.6875 42.0625C45.6042 43.1042 45.1667 44.0417 44.375 44.875C43.625 45.6667 42.7917 46.0625 41.875 46.0625C41 46.0625 40.25 45.6667 39.625 44.875C39 44.0417 38.7917 42.9583 39 41.625C39.5417 38.5833 39.8125 36.2917 39.8125 34.75C39.8125 33.1667 39.5208 31.6667 38.9375 30.25C38.3958 28.8333 37.6042 27.5833 36.5625 26.5C34.3125 24.2083 31.3958 23.0625 27.8125 23.0625C23.8542 23.0625 20.625 24.4167 18.125 27.125C15.375 30.125 14 33.8125 14 38.1875C14 42.5625 14.4792 46.1042 15.4375 48.8125C16.3958 51.4792 17.6458 53.8958 19.1875 56.0625C20.7708 58.2292 22.5625 60.2083 24.5625 62C26.5625 63.7917 28.5833 65.5625 30.625 67.3125C32.7083 69.0625 34.75 70.875 36.75 72.75C38.75 74.5833 40.5417 76.625 42.125 78.875C45.5833 83.9583 47.3125 89.8125 47.3125 96.4375C47.3125 104.188 45.3125 110.375 41.3125 115C37.3542 119.583 32.0625 121.875 25.4375 121.875C19.2708 121.875 14.25 119.5 10.375 114.75C6.70833 110.292 4.875 105.271 4.875 99.6875C4.875 94.1042 6.08333 91.3125 8.5 91.3125ZM126.125 41.625L126.188 64.1875C126.188 79.9375 126.521 97.25 127.188 116.125C127.229 117.458 126.875 118.438 126.125 119.062C125.417 119.688 124.604 120 123.688 120C122.771 120 121.938 119.646 121.188 118.938C120.438 118.229 120.062 117.208 120.062 115.875C120.688 97.125 121 81.5 121 69V36.625C121 34.2083 120.979 31.9375 120.938 29.8125C120.021 33.3542 118.833 37.9583 117.375 43.625C114.042 56.0833 111.708 64.7083 110.375 69.5C109.042 74.25 107.708 78.9375 106.375 83.5625C103.625 93.1042 101.062 101.479 98.6875 108.688C98.4375 109.521 97.9375 110.146 97.1875 110.562C96.4792 110.979 95.7917 111.188 95.125 111.188C93.8333 111.188 92.9583 110.354 92.5 108.688C92.2917 108.021 91.7917 106.417 91 103.875C90.25 101.292 89.2917 98.125 88.125 94.375C87 90.5833 85.7292 86.3542 84.3125 81.6875C82.9375 76.9792 81.5 72.1667 80 67.25C78.5417 62.3333 77.1042 57.4583 75.6875 52.625C74.2708 47.7917 72.9792 43.3333 71.8125 39.25C70.8542 35.875 70.0417 32.9583 69.375 30.5L69.5 46C69.5 64.875 69.6875 80.4792 70.0625 92.8125C70.4792 105.146 70.7083 112.312 70.75 114.312C70.7917 116.312 70.6875 117.542 70.4375 118C70.2292 118.458 69.9375 118.833 69.5625 119.125C67.9375 120.5 66.3333 120.458 64.75 119C64 118.292 63.6667 117.042 63.75 115.25C63.875 113.458 63.9792 111.229 64.0625 108.562C64.1458 105.854 64.2083 103 64.25 100C64.4167 92.9167 64.5 86.3542 64.5 80.3125L63.75 23.4375C63.75 21.5625 64.1875 20.25 65.0625 19.5C65.9375 18.7083 66.9583 18.3125 68.125 18.3125C70.3333 18.3125 71.8542 19.6458 72.6875 22.3125C72.7708 22.5625 72.9792 23.3125 73.3125 24.5625C73.6875 25.7708 74.1667 27.375 74.75 29.375C75.3333 31.3333 76 33.625 76.75 36.25C77.5417 38.8333 78.375 41.625 79.25 44.625C80.125 47.625 81.0417 50.7708 82 54.0625C85.3333 65.5208 89.9375 81.2083 95.8125 101.125C98.8958 92.3333 104.583 72.3958 112.875 41.3125C114.5 35.1458 116.125 28.8542 117.75 22.4375C118.5 19.5625 120.229 18.125 122.938 18.125C124.021 18.125 124.875 18.6667 125.5 19.75C126.167 20.7917 126.458 22.3125 126.375 24.3125C126.208 27.1042 126.125 32.875 126.125 41.625ZM156.812 18.9375C157.979 18.9375 165.479 18.7708 179.312 18.4375C181.229 18.4375 182.542 19.1667 183.25 20.625C183.417 21.0417 183.5 21.5208 183.5 22.0625C183.5 22.6042 183.188 23.1667 182.562 23.75C181.938 24.2917 180.771 24.5417 179.062 24.5C177.354 24.4583 175.688 24.3958 174.062 24.3125C172.479 24.2292 171 24.1667 169.625 24.125C167.167 24.0417 165.062 24.0208 163.312 24.0625C162.979 33.6458 162.812 44.0417 162.812 55.25C162.812 67.25 162.812 75.4792 162.812 79.9375C162.854 84.3542 162.917 88.5833 163 92.625C163.125 102.958 163.25 110.625 163.375 115.625C163.417 117.042 163.083 118.104 162.375 118.812C161.708 119.479 160.958 119.812 160.125 119.812C159.333 119.812 158.542 119.5 157.75 118.875C157 118.208 156.625 117.229 156.625 115.938L156.562 107.75L157.188 48.0625C157.188 36.9375 157.042 28.9375 156.75 24.0625C154.542 24.0208 151.917 24.1042 148.875 24.3125C145.292 24.5625 142.688 24.75 141.062 24.875C139.479 24.9583 138.354 24.6875 137.688 24.0625C137.021 23.4375 136.688 22.7292 136.688 21.9375C136.688 21.1042 137.021 20.2917 137.688 19.5C138.354 18.7083 139.417 18.3542 140.875 18.4375C142.375 18.4792 143.667 18.5208 144.75 18.5625C145.833 18.6042 146.771 18.6458 147.562 18.6875C148.396 18.7292 149.125 18.7708 149.75 18.8125C150.375 18.8542 151 18.8958 151.625 18.9375C152.292 18.9375 153.042 18.9375 153.875 18.9375H156.812ZM229.438 50.5L229.375 40.625C229.375 39.0417 229.354 37.3542 229.312 35.5625C229.312 33.7292 229.292 31.7708 229.25 29.6875C229.25 27.5625 229.229 25.5208 229.188 23.5625C229.146 21.5625 229.5 20.25 230.25 19.625C231 19 231.792 18.6875 232.625 18.6875C233.458 18.6875 234.208 19 234.875 19.625C235.583 20.25 235.917 21.2292 235.875 22.5625C235.208 45.6875 234.875 63.8125 234.875 76.9375C234.875 98.0625 235.021 111.104 235.312 116.062C235.396 117.396 235.083 118.396 234.375 119.062C233.708 119.729 232.958 120.062 232.125 120.062C231.333 120.062 230.604 119.75 229.938 119.125C229.312 118.458 229.021 117.458 229.062 116.125C229.229 102.417 229.354 90.6458 229.438 80.8125C225.729 80.4792 220.667 80.3125 214.25 80.3125C207.583 80.3125 202.646 80.5 199.438 80.875C199.479 93.4583 199.625 105.083 199.875 115.75C199.917 117.125 199.562 118.167 198.812 118.875C198.062 119.583 197.25 119.938 196.375 119.938C195.542 119.938 194.792 119.625 194.125 119C193.458 118.333 193.167 116.854 193.25 114.562C193.333 112.271 193.417 108.979 193.5 104.688C193.583 100.396 193.667 95.8333 193.75 91C193.833 82.875 193.875 74.5625 193.875 66.0625C193.875 57.5625 193.854 51.5833 193.812 48.125C193.812 44.625 193.792 41.4375 193.75 38.5625C193.625 34.0625 193.375 28.8542 193 22.9375C192.917 21.6042 193.25 20.625 194 20C194.75 19.3333 195.583 19 196.5 19C197.417 19 198.25 19.3333 199 20C199.75 20.625 200.083 21.9167 200 23.875C199.917 25.7917 199.833 28.125 199.75 30.875C199.667 33.625 199.604 36.6667 199.562 40C199.521 43.2917 199.5 46.9583 199.5 51C199.458 54.7917 199.438 62.7708 199.438 74.9375C202.188 75.3542 207.167 75.5625 214.375 75.5625C221.292 75.5625 226.312 75.3542 229.438 74.9375C229.438 73.3542 229.438 71.8333 229.438 70.375V50.5ZM276.625 91.3125C278.083 91.3125 279 91.875 279.375 93C279.75 94.125 279.938 95.9792 279.938 98.5625C279.938 101.146 280.292 103.562 281 105.812C281.708 108.062 282.688 109.958 283.938 111.5C286.479 114.583 290 116.125 294.5 116.125C299 116.125 302.583 114.479 305.25 111.188C307.917 107.854 309.25 103.083 309.25 96.875C309.25 88.5833 305.729 81.2083 298.688 74.75C296.688 72.9167 294.625 71.1042 292.5 69.3125C290.417 67.5208 288.375 65.6667 286.375 63.75C284.375 61.8333 282.583 59.7083 281 57.375C277.542 52.25 275.812 46.4167 275.812 39.875C275.812 33.1667 277.792 27.75 281.75 23.625C285.667 19.5417 290.583 17.5 296.5 17.5C301.583 17.5 305.75 19.2083 309 22.625C312.625 26.5417 314.292 31.9583 314 38.875C313.958 39.2083 313.938 39.5625 313.938 39.9375C313.979 40.3125 313.938 41.0208 313.812 42.0625C313.729 43.1042 313.292 44.0417 312.5 44.875C311.75 45.6667 310.917 46.0625 310 46.0625C309.125 46.0625 308.375 45.6667 307.75 44.875C307.125 44.0417 306.917 42.9583 307.125 41.625C307.667 38.5833 307.938 36.2917 307.938 34.75C307.938 33.1667 307.646 31.6667 307.062 30.25C306.521 28.8333 305.729 27.5833 304.688 26.5C302.438 24.2083 299.521 23.0625 295.938 23.0625C291.979 23.0625 288.75 24.4167 286.25 27.125C283.5 30.125 282.125 33.8125 282.125 38.1875C282.125 42.5625 282.604 46.1042 283.562 48.8125C284.521 51.4792 285.771 53.8958 287.312 56.0625C288.896 58.2292 290.688 60.2083 292.688 62C294.688 63.7917 296.708 65.5625 298.75 67.3125C300.833 69.0625 302.875 70.875 304.875 72.75C306.875 74.5833 308.667 76.625 310.25 78.875C313.708 83.9583 315.438 89.8125 315.438 96.4375C315.438 104.188 313.438 110.375 309.438 115C305.479 119.583 300.188 121.875 293.562 121.875C287.396 121.875 282.375 119.5 278.5 114.75C274.833 110.292 273 105.271 273 99.6875C273 94.1042 274.208 91.3125 276.625 91.3125ZM368.312 50.5L368.25 40.625C368.25 39.0417 368.229 37.3542 368.188 35.5625C368.188 33.7292 368.167 31.7708 368.125 29.6875C368.125 27.5625 368.104 25.5208 368.062 23.5625C368.021 21.5625 368.375 20.25 369.125 19.625C369.875 19 370.667 18.6875 371.5 18.6875C372.333 18.6875 373.083 19 373.75 19.625C374.458 20.25 374.792 21.2292 374.75 22.5625C374.083 45.6875 373.75 63.8125 373.75 76.9375C373.75 98.0625 373.896 111.104 374.188 116.062C374.271 117.396 373.958 118.396 373.25 119.062C372.583 119.729 371.833 120.062 371 120.062C370.208 120.062 369.479 119.75 368.812 119.125C368.188 118.458 367.896 117.458 367.938 116.125C368.104 102.417 368.229 90.6458 368.312 80.8125C364.604 80.4792 359.542 80.3125 353.125 80.3125C346.458 80.3125 341.521 80.5 338.312 80.875C338.354 93.4583 338.5 105.083 338.75 115.75C338.792 117.125 338.438 118.167 337.688 118.875C336.938 119.583 336.125 119.938 335.25 119.938C334.417 119.938 333.667 119.625 333 119C332.333 118.333 332.042 116.854 332.125 114.562C332.208 112.271 332.292 108.979 332.375 104.688C332.458 100.396 332.542 95.8333 332.625 91C332.708 82.875 332.75 74.5625 332.75 66.0625C332.75 57.5625 332.729 51.5833 332.688 48.125C332.688 44.625 332.667 41.4375 332.625 38.5625C332.5 34.0625 332.25 28.8542 331.875 22.9375C331.792 21.6042 332.125 20.625 332.875 20C333.625 19.3333 334.458 19 335.375 19C336.292 19 337.125 19.3333 337.875 20C338.625 20.625 338.958 21.9167 338.875 23.875C338.792 25.7917 338.708 28.125 338.625 30.875C338.542 33.625 338.479 36.6667 338.438 40C338.396 43.2917 338.375 46.9583 338.375 51C338.333 54.7917 338.312 62.7708 338.312 74.9375C341.062 75.3542 346.042 75.5625 353.25 75.5625C360.167 75.5625 365.188 75.3542 368.312 74.9375C368.312 73.3542 368.312 71.8333 368.312 70.375V50.5ZM402.562 31.9375C402.521 33.6875 402.479 35.7083 402.438 38C402.438 40.25 402.438 49.375 402.438 65.375C402.438 81.375 402.688 98.2083 403.188 115.875C403.229 117.208 402.833 118.229 402 118.938C401.208 119.646 400.354 120 399.438 120C398.562 120 397.771 119.688 397.062 119.062C396.396 118.438 396.104 117.042 396.188 114.875C396.271 112.708 396.354 109.708 396.438 105.875C396.521 102.042 396.604 97.9583 396.688 93.625C396.854 85.0417 396.938 77.0417 396.938 69.625C396.938 62.1667 396.917 56.375 396.875 52.25C396.875 48.0833 396.833 44.25 396.75 40.75C396.625 33 396.396 26.8125 396.062 22.1875C395.938 20.8542 396.167 19.875 396.75 19.25C397.375 18.5833 398.167 18.25 399.125 18.25C400.083 18.25 400.979 18.5833 401.812 19.25C402.646 19.875 403.021 20.9583 402.938 22.5C402.896 24.0417 402.833 25.5625 402.75 27.0625C402.708 28.5625 402.646 30.1875 402.562 31.9375ZM472.375 22.0625C472.125 42.8125 472 57.5 472 66.125C472 74.7083 472 81.0208 472 85.0625C472.042 89.0625 472.083 92.875 472.125 96.5C472.208 104.167 472.292 109.417 472.375 112.25C472.5 115.042 472.438 116.708 472.188 117.25C471.938 117.792 471.604 118.25 471.188 118.625C469.479 120.167 467.667 120.312 465.75 119.062C465 118.562 464.458 117.812 464.125 116.812C460.458 106.062 456.042 94.3958 450.875 81.8125C445.708 69.1875 442.104 60.2708 440.062 55.0625C436.354 45.6042 433.125 36.9375 430.375 29.0625L431.188 116.25C431.188 117.542 430.854 118.5 430.188 119.125C429.521 119.75 428.75 120.062 427.875 120.062C427.042 120.062 426.25 119.729 425.5 119.062C424.792 118.354 424.458 117.312 424.5 115.938C424.917 104.479 425.125 91.4167 425.125 76.75V39.6875C425.125 33.2292 425.083 27.6667 425 23C425 21.4583 425.458 20.2917 426.375 19.5C427.333 18.6667 428.333 18.25 429.375 18.25C431.708 18.25 433.25 19.3542 434 21.5625C434.75 23.7708 435.812 26.75 437.188 30.5C438.562 34.2083 440.104 38.3542 441.812 42.9375C443.521 47.4792 445.354 52.3125 447.312 57.4375C449.271 62.5208 451.229 67.6042 453.188 72.6875C455.146 77.7292 457.042 82.625 458.875 87.375C460.708 92.125 462.375 96.4375 463.875 100.312C465.375 104.188 466.646 107.5 467.688 110.25C467.729 110.375 467.771 110.479 467.812 110.562C467.479 102.396 467.208 93.5 467 83.875C466.792 72.1667 466.604 63.3958 466.438 57.5625C466.312 51.7292 466.167 45.8333 466 39.875C465.875 33.875 465.708 27.9375 465.5 22.0625C465.5 20.7292 465.854 19.75 466.562 19.125C467.312 18.4583 468.125 18.125 469 18.125C469.875 18.125 470.646 18.4583 471.312 19.125C472.021 19.75 472.375 20.7292 472.375 22.0625ZM515.938 97.875L516.375 116.062C516.375 117.938 515.479 119.208 513.688 119.875C513.229 120.042 512.688 120.125 512.062 120.125C511.438 120.125 510.771 119.792 510.062 119.125C509.354 118.417 509.062 117.333 509.188 115.875C509.312 114.375 509.458 112.896 509.625 111.438C509.792 109.979 509.938 108.5 510.062 107C510.354 103.5 510.5 100.771 510.5 98.8125C510.5 96.8542 510.479 95.1667 510.438 93.75C510.396 92.3333 510.333 90.875 510.25 89.375C510.208 88.1667 510.146 86.8125 510.062 85.3125C508.688 81.8125 507.167 78.0833 505.5 74.125C503.375 68.9583 501.167 63.5833 498.875 58C489.458 35.3333 484.75 23.0625 484.75 21.1875C484.75 20.1458 485.062 19.3125 485.688 18.6875C486.312 18.0625 487.104 17.7292 488.062 17.6875C489.062 17.6458 489.833 17.9792 490.375 18.6875C490.917 19.3542 491.708 21.5208 492.75 25.1875C493.833 28.8542 495.417 33.5833 497.5 39.375C499.583 45.125 501.688 50.625 503.812 55.875C506.604 62.8333 509.75 70.2292 513.25 78.0625C513.875 76.3542 514.542 74.5417 515.25 72.625C516.458 69.5 517.688 66.2292 518.938 62.8125C520.229 59.3542 521.521 55.8333 522.812 52.25C524.146 48.625 525.417 45.0833 526.625 41.625C529.542 33.1667 531.396 27.5417 532.188 24.75C532.979 21.9167 533.646 19.9792 534.188 18.9375C534.729 17.8542 535.542 17.3125 536.625 17.3125C538.625 17.3125 539.625 18.2917 539.625 20.25C539.625 21.75 538.125 26.375 535.125 34.125C532.167 41.875 530.25 46.9792 529.375 49.4375C528.542 51.8542 527.729 54.1458 526.938 56.3125C526.146 58.4375 525.292 60.7292 524.375 63.1875C523.458 65.6042 522.5 68.1042 521.5 70.6875C520.542 73.2292 519.625 75.6667 518.75 78C517.75 80.5 516.917 82.6042 516.25 84.3125C516.042 91.7292 515.938 96.25 515.938 97.875Z" fill="white"/>
</svg>
