<svg width="204" height="203" viewBox="0 0 204 203" fill="none" xmlns="http://www.w3.org/2000/svg">
<g clip-path="url(#clip0_65_816)">
<path d="M102 203C158.333 203 204 157.557 204 101.5C204 45.4431 158.333 0 102 0C45.667 0 0 45.4431 0 101.5C0 157.557 45.667 203 102 203Z" fill="#909B8E"/>
<mask id="mask0_65_816" style="mask-type:luminance" maskUnits="userSpaceOnUse" x="5" y="5" width="194" height="193">
<path d="M102 197.797C155.446 197.797 198.772 154.684 198.772 101.5C198.772 48.3164 155.446 5.20264 102 5.20264C48.5545 5.20264 5.22827 48.3164 5.22827 101.5C5.22827 154.684 48.5545 197.797 102 197.797Z" fill="white"/>
</mask>
<g mask="url(#mask0_65_816)">
<path d="M102 197.797C155.446 197.797 198.772 154.684 198.772 101.5C198.772 48.3164 155.446 5.20264 102 5.20264C48.5545 5.20264 5.22827 48.3164 5.22827 101.5C5.22827 154.684 48.5545 197.797 102 197.797Z" fill="#909B8E"/>
<path d="M159.291 91.7755L172.582 81.0542L178.298 86.4027V97.2699L172.582 102.497L159.291 91.7755Z" fill="#FFFFFD"/>
<path d="M172.606 103.469L158.143 91.7754L172.63 80.0817L179.031 86.0866V97.5859L172.606 103.469ZM160.39 91.7754L172.484 101.5L177.492 96.9051V86.7187L172.484 82.0023L160.39 91.7754Z" fill="black"/>
<path d="M159.291 91.7755L172.582 86.9132L178.298 89.8549" fill="#FFFFFD"/>
<path d="M159.56 92.4562L159.047 91.0948L172.63 86.1353L178.64 89.2228L177.956 90.5113L172.533 87.7155L159.56 92.4562Z" fill="black"/>
<path d="M159.291 91.7754L172.582 96.6377L178.298 93.696" fill="#FFFFFD"/>
<path d="M172.63 97.4157L159.047 92.4562L159.56 91.0947L172.533 95.8354L177.956 93.0396L178.64 94.3281L172.63 97.4157Z" fill="black"/>
<path d="M173.315 81.0542H171.849V102.521H173.315V81.0542Z" fill="black"/>
<path d="M186.019 109.547C185.825 109.544 185.641 109.466 185.506 109.328L178.86 102.618C178.73 102.475 178.658 102.289 178.658 102.096C178.658 101.902 178.73 101.716 178.86 101.573C179.001 101.438 179.19 101.362 179.386 101.362C179.582 101.362 179.77 101.438 179.911 101.573L186.556 108.283C186.69 108.419 186.766 108.602 186.766 108.793C186.766 108.984 186.69 109.168 186.556 109.304C186.492 109.383 186.41 109.446 186.316 109.489C186.223 109.531 186.121 109.551 186.019 109.547Z" fill="black"/>
<path d="M172.582 117.035C172.389 117.029 172.206 116.95 172.07 116.815C171.934 116.679 171.855 116.497 171.849 116.306V106.751C171.855 106.56 171.934 106.378 172.07 106.242C172.206 106.107 172.389 106.028 172.582 106.022C172.776 106.022 172.962 106.099 173.1 106.236C173.237 106.372 173.315 106.558 173.315 106.751V116.306C173.315 116.499 173.237 116.685 173.1 116.821C172.962 116.958 172.776 117.035 172.582 117.035Z" fill="black"/>
<path d="M163.689 107.821C163.553 107.821 163.419 107.783 163.303 107.712C163.188 107.641 163.094 107.539 163.033 107.418C162.972 107.297 162.946 107.161 162.959 107.026C162.971 106.891 163.021 106.762 163.102 106.654L166.694 102.108C166.753 102.031 166.827 101.967 166.911 101.919C166.996 101.871 167.089 101.839 167.185 101.827C167.281 101.814 167.379 101.821 167.473 101.846C167.567 101.872 167.655 101.915 167.732 101.974C167.809 102.033 167.874 102.107 167.922 102.191C167.97 102.274 168.002 102.367 168.014 102.463C168.027 102.559 168.02 102.656 167.995 102.75C167.969 102.843 167.926 102.931 167.866 103.007L164.348 107.578C164.268 107.67 164.165 107.741 164.05 107.783C163.934 107.826 163.81 107.839 163.689 107.821Z" fill="black"/>
<path d="M193.006 99.1175H192.762L182.232 95.5437C182.14 95.5135 182.056 95.4656 181.983 95.4028C181.91 95.3399 181.85 95.2634 181.807 95.1776C181.764 95.0918 181.738 94.9984 181.732 94.9026C181.725 94.8069 181.737 94.7108 181.768 94.6198C181.798 94.529 181.846 94.4452 181.909 94.3735C181.973 94.3018 182.051 94.2437 182.137 94.2028C182.224 94.1618 182.319 94.1389 182.415 94.1354C182.511 94.1318 182.606 94.1478 182.696 94.1822L193.177 97.7074C193.27 97.7347 193.357 97.7808 193.432 97.843C193.507 97.9051 193.568 97.982 193.611 98.0687C193.655 98.1553 193.68 98.2501 193.685 98.3469C193.69 98.4437 193.675 98.5405 193.641 98.6312C193.597 98.7666 193.513 98.8855 193.399 98.9723C193.286 99.0591 193.149 99.1097 193.006 99.1175Z" fill="black"/>
<path d="M179.398 82.2453C179.252 82.2482 179.109 82.2078 178.987 82.1293C178.864 82.0509 178.768 81.938 178.711 81.805C178.653 81.672 178.636 81.525 178.663 81.3826C178.69 81.2402 178.758 81.1089 178.86 81.0055L185.506 74.2955C185.643 74.1619 185.827 74.087 186.019 74.087C186.211 74.087 186.395 74.1619 186.532 74.2955C186.668 74.4359 186.744 74.6233 186.744 74.8182C186.744 75.0131 186.668 75.2005 186.532 75.3409L179.886 82.0509C179.753 82.1736 179.579 82.2429 179.398 82.2453Z" fill="black"/>
<path d="M172.582 77.6019C172.389 77.5958 172.206 77.517 172.07 77.3815C171.934 77.246 171.855 77.064 171.849 76.8725V67.3182C171.849 67.1247 171.926 66.9392 172.063 66.8024C172.201 66.6657 172.387 66.5888 172.582 66.5888C172.679 66.5854 172.776 66.602 172.866 66.6374C172.957 66.6729 173.039 66.7265 173.107 66.7949C173.176 66.8633 173.23 66.9451 173.266 67.0351C173.301 67.1251 173.318 67.2215 173.315 67.3182V76.8725C173.315 77.066 173.237 77.2515 173.1 77.3883C172.962 77.525 172.776 77.6019 172.582 77.6019Z" fill="black"/>
<path d="M167.28 81.8321C167.166 81.8321 167.054 81.8057 166.952 81.7551C166.85 81.7044 166.762 81.6309 166.694 81.5403L163.176 76.9698C163.056 76.815 163.003 76.6192 163.028 76.4255C163.053 76.2317 163.154 76.0558 163.31 75.9366C163.465 75.8173 163.662 75.7643 163.857 75.7894C164.052 75.8145 164.228 75.9155 164.348 76.0703L167.866 80.6651C167.948 80.7735 167.998 80.9023 168.01 81.0372C168.022 81.1721 167.996 81.3077 167.936 81.4289C167.875 81.55 167.781 81.6519 167.665 81.7231C167.55 81.7943 167.416 81.8321 167.28 81.8321Z" fill="black"/>
<path d="M182.452 89.4902C182.298 89.487 182.15 89.436 182.027 89.3445C181.904 89.2529 181.814 89.1253 181.768 88.9796C181.712 88.7958 181.729 88.5978 181.816 88.4261C181.902 88.2545 182.051 88.122 182.232 88.0558L192.713 84.5306C192.897 84.4694 193.099 84.4836 193.273 84.5703C193.447 84.6569 193.58 84.8088 193.641 84.9926C193.703 85.1763 193.688 85.3769 193.601 85.5501C193.514 85.7234 193.362 85.8551 193.177 85.9164L182.696 89.4415L182.452 89.4902Z" fill="black"/>
<path d="M151.155 80.422C148.887 80.4172 146.668 81.0824 144.78 82.3335C142.892 83.5845 141.42 85.365 140.55 87.4494C139.679 89.5339 139.45 91.8285 139.892 94.0425C140.333 96.2565 141.425 98.2904 143.029 99.8865C144.633 101.483 146.677 102.569 148.902 103.008C151.127 103.447 153.432 103.219 155.527 102.353C157.622 101.487 159.411 100.022 160.668 98.1435C161.926 96.2647 162.594 94.0569 162.589 91.7997C162.583 88.7842 161.376 85.8939 159.233 83.7616C157.09 81.6292 154.186 80.4284 151.155 80.422ZM151.155 99.0688C149.706 99.0688 148.289 98.6411 147.084 97.8397C145.878 97.0383 144.939 95.8992 144.384 94.5665C143.829 93.2338 143.684 91.7673 143.967 90.3526C144.25 88.9378 144.948 87.6382 145.973 86.6182C146.998 85.5982 148.304 84.9036 149.726 84.6222C151.147 84.3407 152.621 84.4852 153.96 85.0372C155.3 85.5892 156.444 86.524 157.25 87.7234C158.055 88.9228 158.485 90.3329 158.485 91.7754C158.485 92.7332 158.295 93.6816 157.927 94.5665C157.559 95.4514 157.019 96.2554 156.338 96.9326C155.658 97.6099 154.85 98.1471 153.96 98.5137C153.071 98.8802 152.118 99.0688 151.155 99.0688Z" fill="white"/>
<path d="M151.155 103.931C148.739 103.931 146.378 103.218 144.369 101.883C142.36 100.547 140.794 98.6484 139.87 96.4272C138.945 94.2061 138.703 91.762 139.175 89.404C139.646 87.046 140.809 84.8801 142.518 83.1801C144.226 81.4801 146.403 80.3224 148.772 79.8533C151.142 79.3843 153.598 79.625 155.83 80.5451C158.062 81.4651 159.97 83.0231 161.312 85.0221C162.655 87.0211 163.371 89.3713 163.371 91.7754C163.371 93.3718 163.055 94.9524 162.441 96.4272C161.827 97.902 160.927 99.2421 159.793 100.371C158.659 101.5 157.312 102.395 155.83 103.006C154.348 103.617 152.76 103.931 151.155 103.931ZM151.155 81.1514C149.032 81.1466 146.955 81.769 145.188 82.9399C143.42 84.1108 142.042 85.7774 141.227 87.7286C140.412 89.6797 140.198 91.8277 140.611 93.9002C141.024 95.9728 142.046 97.8767 143.547 99.3708C145.049 100.865 146.962 101.882 149.045 102.293C151.127 102.704 153.286 102.49 155.247 101.68C157.207 100.869 158.882 99.4972 160.059 97.7383C161.236 95.9795 161.861 93.9127 161.856 91.7998C161.85 88.9776 160.72 86.2729 158.715 84.2773C156.71 82.2817 153.992 81.1578 151.155 81.1514ZM151.155 99.7982C149.565 99.803 148.008 99.338 146.683 98.4621C145.358 97.5861 144.324 96.3386 143.712 94.8775C143.1 93.4164 142.937 91.8074 143.245 90.2543C143.552 88.7012 144.316 87.2737 145.439 86.1527C146.562 85.0316 147.994 84.2674 149.554 83.9568C151.114 83.6462 152.731 83.8032 154.201 84.4079C155.671 85.0125 156.928 86.0377 157.813 87.3535C158.697 88.6694 159.169 90.2168 159.169 91.7998C159.169 93.9169 158.325 95.9476 156.823 97.4469C155.321 98.9462 153.283 99.7918 151.155 99.7982ZM151.155 85.2114C149.854 85.2066 148.58 85.5866 147.495 86.3034C146.411 87.0201 145.564 88.0413 145.064 89.2372C144.564 90.4332 144.431 91.7501 144.684 93.021C144.937 94.2918 145.563 95.4593 146.484 96.3754C147.405 97.2915 148.578 97.9148 149.855 98.1664C151.132 98.4179 152.455 98.2864 153.657 97.7884C154.859 97.2904 155.885 96.4484 156.606 95.3692C157.326 94.2901 157.708 93.0223 157.703 91.7268C157.684 90.0115 156.985 88.3729 155.76 87.1668C154.534 85.9606 152.879 85.2842 151.155 85.2843V85.2114Z" fill="black"/>
<path d="M123.89 91.7268C121.447 63.793 117.66 28.5172 71.4855 39.5789C25.3107 50.6406 9.11282 152.554 9.11282 152.554C9.11282 152.554 5.86348 166.825 9.11282 195.39C12.3622 223.956 128.263 195.39 128.263 195.39C128.263 195.39 126.382 119.661 123.89 91.7268Z" fill="black"/>
<path d="M117.538 72.6667L154.405 78.1611L123.499 91.8241L117.538 72.6667Z" fill="white"/>
<path d="M123.524 92.5534C123.42 92.5791 123.311 92.5791 123.206 92.5534C123.11 92.5115 123.024 92.448 122.956 92.3679C122.889 92.2878 122.84 92.1932 122.815 92.0914L116.854 72.9341C116.818 72.8137 116.812 72.6862 116.837 72.563C116.863 72.4399 116.919 72.3251 117.001 72.229C117.085 72.1416 117.188 72.0742 117.302 72.0321C117.417 71.99 117.539 71.9742 117.66 71.9859L154.503 77.4803C154.657 77.5004 154.801 77.5709 154.912 77.6809C155.022 77.7908 155.093 77.9339 155.113 78.0881C155.139 78.2451 155.112 78.4061 155.037 78.5465C154.962 78.687 154.843 78.7992 154.698 78.866L123.817 92.5047C123.725 92.5447 123.624 92.5614 123.524 92.5534ZM118.638 73.5662L124.012 90.8272L151.864 78.5014L118.638 73.5662Z" fill="black"/>
<path d="M117.538 111.905L154.405 106.411L123.499 92.7479L117.538 111.905Z" fill="white"/>
<path d="M117.538 112.635C117.424 112.632 117.313 112.604 117.212 112.551C117.111 112.498 117.024 112.423 116.958 112.331C116.892 112.239 116.848 112.133 116.83 112.021C116.812 111.909 116.82 111.794 116.854 111.686L122.815 92.5291C122.84 92.4273 122.889 92.3327 122.957 92.2526C123.024 92.1725 123.11 92.109 123.206 92.0671C123.403 91.9945 123.62 91.9945 123.817 92.0671L154.698 105.754C154.846 105.818 154.967 105.93 155.043 106.071C155.118 106.212 155.143 106.375 155.113 106.532C155.093 106.687 155.022 106.83 154.912 106.94C154.801 107.05 154.657 107.12 154.503 107.14L117.66 112.635H117.538ZM123.964 93.7446L118.589 111.006L151.815 106.143L123.964 93.7446Z" fill="black"/>
<path d="M79.8165 107.797C90.3815 107.797 98.9461 99.2741 98.9461 88.7609C98.9461 78.2477 90.3815 69.7251 79.8165 69.7251C69.2516 69.7251 60.687 78.2477 60.687 88.7609C60.687 99.2741 69.2516 107.797 79.8165 107.797Z" fill="white"/>
<path d="M79.8165 99.8711C85.9828 99.8711 90.9816 94.8969 90.9816 88.7608C90.9816 82.6248 85.9828 77.6505 79.8165 77.6505C73.6503 77.6505 68.6515 82.6248 68.6515 88.7608C68.6515 94.8969 73.6503 99.8711 79.8165 99.8711Z" fill="black"/>
</g>
</g>
<defs>
<clipPath id="clip0_65_816">
<rect width="204" height="203" fill="white"/>
</clipPath>
</defs>
</svg>
