<svg xmlns="http://www.w3.org/2000/svg" viewBox="0 0 84.67 64.46"><defs><style>.cls-1{fill:#fff;}.cls-2{fill:none;stroke:#000;stroke-linecap:round;stroke-linejoin:round;}</style></defs><g id="Layer_2" data-name="Layer 2"><g id="Layer_1-2" data-name="Layer 1"><path d="M76.48,17.33l7.69-2.91-7.48-3.07S73.8,1.89,64.74.61s-17,8.94-17,8.94-14.65,23-24.51,33.57c-6.65,4.77-20.56,2.3-22.09,4.6s-1.27,2.68,10.47,6a62.9,62.9,0,0,0,22.14,2.37h0l1.77-.18.16,0c.54-.06,1.09-.14,1.64-.22l.27-.05,1.54-.26.37-.08c.49-.09,1-.19,1.46-.31l.46-.1,1.39-.35.53-.15c.44-.12.89-.25,1.33-.39l.59-.19,1.29-.43.64-.23,1.24-.48.69-.28,1.2-.52.73-.33L52.25,51l.75-.38L54.16,50l.76-.43c.39-.22.77-.45,1.15-.68l.78-.47L58,47.61l.77-.51c.39-.27.79-.56,1.18-.85.24-.17.49-.34.73-.53.43-.32.86-.66,1.29-1,.2-.17.41-.32.62-.49q.94-.78,1.89-1.62c.32-.32.62-.64.92-1s.54-.58.8-.87h0C76.82,28.88,76.48,17.33,76.48,17.33Z"/><circle class="cls-1" cx="63.2" cy="14.33" r="6.67"/><circle cx="63.2" cy="14.42" r="4.15"/><path class="cls-1" d="M48.17,26.53C46.12,15,34,31.07,33.87,43.58s-.1,12.51-.1,12.51A51.77,51.77,0,0,0,64.48,42.61c.61-.61,1.17-1.22,1.72-1.84C66,40.75,50.2,38,48.17,26.53Z"/><polyline class="cls-2" points="50.16 51.95 45.08 59.48 50.16 63.38"/><polyline class="cls-2" points="42.83 54.52 39.34 59.75 43.75 63.96"/><path d="M47.76,9.55s14,26.64-1.94,37.36-34,1.37-34,1.37l18.55-6.13Z"/><polygon class="cls-1" points="76.69 11.35 76.48 17.33 84.17 14.42 76.69 11.35"/><path class="cls-2" d="M76.48,17.33l7.69-2.91-7.48-3.07S73.8,1.89,64.74.61s-17,8.94-17,8.94S34.41,31.73,24.54,42.32c-6.64,4.77-21.85,3.1-23.38,5.4s-1.27,2.68,10.47,6a62.9,62.9,0,0,0,22.14,2.37h0l1.77-.18.16,0c.54-.06,1.09-.14,1.64-.22l.27-.05,1.54-.26.37-.08c.49-.09,1-.19,1.46-.31l.46-.1,1.39-.35.53-.15c.44-.12.89-.25,1.33-.39l.59-.19,1.29-.43.64-.23,1.24-.48.69-.28,1.2-.52.73-.33L52.25,51l.75-.38L54.16,50l.76-.43c.39-.22.77-.45,1.15-.68l.78-.47L58,47.61l.77-.51c.39-.27.79-.56,1.18-.85.24-.17.49-.34.73-.53.43-.32.86-.66,1.29-1,.2-.17.41-.32.62-.49q.94-.78,1.89-1.62c.32-.32.62-.64.92-1s.54-.58.8-.87h0C76.82,28.88,76.48,17.33,76.48,17.33Z"/></g></g></svg>