<svg width="40" height="26" viewBox="0 0 40 26" fill="none" xmlns="http://www.w3.org/2000/svg">
<path fill-rule="evenodd" clip-rule="evenodd" d="M38.3483 1.76041C38.6213 0.745706 38.3483 0 37.0501 0H32.7562C31.6642 0 31.161 0.644041 30.8884 1.35472C30.8884 1.35472 28.7044 7.29119 25.6112 11.1477C24.6108 12.264 24.1559 12.6196 23.6095 12.6196C23.3369 12.6196 22.9418 12.264 22.9418 11.2498V1.76041C22.9418 0.542862 22.6248 0 21.7151 0H14.9669C14.2848 0 13.874 0.565239 13.874 1.10129C13.874 2.2556 15.4209 2.52217 15.5805 5.76962V12.8225C15.5805 14.3688 15.3302 14.65 14.7842 14.65C13.3289 14.65 9.78779 8.68629 7.68754 1.86256C7.27587 0.536053 6.86332 0.000486169 5.76609 0.000486169H1.47227C0.245087 -2.6723e-07 0 0.644041 0 1.35424C0 2.62286 1.45526 8.91491 6.77784 17.2364C10.3259 22.9189 15.3249 26 19.8743 26C22.6034 26 22.9414 25.3156 22.9414 24.1369V19.8422C22.9414 18.4734 23.2 18.2005 24.0644 18.2005C24.7011 18.2005 25.7926 18.5551 28.3403 21.2952C31.2517 24.5426 31.7314 25.9995 33.3694 25.9995H37.6632C38.8895 25.9995 39.5031 25.3151 39.1494 23.9652C38.7617 22.6193 37.3719 20.6667 35.5276 18.3527C34.5268 17.0335 33.0253 15.6126 32.5705 14.902C31.9333 13.9889 32.1156 13.5832 32.5705 12.7709C32.5705 12.7709 37.8028 4.55109 38.3483 1.76041Z" fill="white"/>
</svg>
